# 3ds Max Wavefront OBJ Exporter v0.97b - (c)2007 guruware
# File Created: 21.01.2012 16:06:49

mtllib gardulet.mtl

#
# object Mesh26
#

v  -0.0130 11.4815 1.1022
v  -7.8415 11.4815 1.1022
v  -0.0130 11.8949 1.1022
v  -7.8415 10.6549 1.1022
v  -15.6700 10.6549 1.1022
v  -7.8415 11.0682 1.1022
v  -15.6700 11.0682 1.1022
v  15.6441 10.6549 1.1022
v  7.8155 10.6549 1.1022
v  15.6441 11.0682 1.1022
v  -15.6700 12.3082 1.1022
v  -7.8415 12.3082 1.1022
v  -15.6700 11.8949 1.1022
v  -0.0130 10.6549 1.1022
v  7.8155 11.0682 1.1022
v  -0.0130 11.0682 1.1022
v  -15.6700 11.4815 1.1022
v  7.8155 11.4815 1.1022
v  -7.8415 11.8949 1.1022
v  15.6441 11.4815 1.1022
v  15.6441 11.8949 1.1022
v  7.8155 11.8949 1.1022
v  -0.0130 12.3082 1.1022
v  15.6441 12.3082 1.1022
v  7.8155 12.3082 1.1022
# 25 vertices

vn 0.0000 0.0000 -1.0000
# 1 vertex normals

vt 4.3000 0.5000 0.5000
vt 6.4479 0.5000 0.7500
vt 4.3000 0.7498 0.5000
vt 6.4479 0.0005 0.7500
vt 8.5957 0.0005 1.0000
vt 6.4479 0.2502 0.7500
vt 8.5957 0.2502 1.0000
vt 0.0043 0.0005 0.0000
vt 2.1522 0.0005 0.2500
vt 0.0043 0.2502 0.0000
vt 8.5957 0.9995 1.0000
vt 6.4479 0.9995 0.7500
vt 8.5957 0.7498 1.0000
vt 4.3000 0.0005 0.5000
vt 2.1522 0.2502 0.2500
vt 4.3000 0.2502 0.5000
vt 8.5957 0.5000 1.0000
vt 2.1522 0.5000 0.2500
vt 6.4479 0.7498 0.7500
vt 0.0043 0.5000 0.0000
vt 0.0043 0.7498 0.0000
vt 2.1522 0.7498 0.2500
vt 4.3000 0.9995 0.5000
vt 0.0043 0.9995 0.0000
vt 2.1522 0.9995 0.2500
# 25 texture coords

g Mesh26
usemtl MatD3D26
s 1
f 1/1/1 2/2/1 3/3/1 
f 4/4/1 5/5/1 6/6/1 
f 7/7/1 2/2/1 6/6/1 
f 8/8/1 9/9/1 10/10/1 
f 11/11/1 12/12/1 13/13/1 
f 9/9/1 14/14/1 15/15/1 
f 5/5/1 7/7/1 6/6/1 
f 16/16/1 15/15/1 14/14/1 
f 14/14/1 4/4/1 16/16/1 
f 7/7/1 17/17/1 2/2/1 
f 1/1/1 6/6/1 2/2/1 
f 16/16/1 6/6/1 1/1/1 
f 16/16/1 4/4/1 6/6/1 
f 18/18/1 16/16/1 1/1/1 
f 18/18/1 15/15/1 16/16/1 
f 17/17/1 13/13/1 19/19/1 
f 19/19/1 2/2/1 17/17/1 
f 19/19/1 3/3/1 2/2/1 
f 20/20/1 18/18/1 21/21/1 
f 20/20/1 15/15/1 18/18/1 
f 22/22/1 1/1/1 3/3/1 
f 22/22/1 18/18/1 1/1/1 
f 10/10/1 15/15/1 20/20/1 
f 10/10/1 9/9/1 15/15/1 
f 23/23/1 3/3/1 19/19/1 
f 24/24/1 22/22/1 25/25/1 
f 25/25/1 3/3/1 23/23/1 
f 25/25/1 22/22/1 3/3/1 
f 12/12/1 19/19/1 13/13/1 
f 12/12/1 23/23/1 19/19/1 
f 21/21/1 22/22/1 24/24/1 
f 21/21/1 18/18/1 22/22/1 
# 0 polygons - 32 triangles

#
# object Mesh27
#

v  -15.6773 10.7982 1.1579
v  15.5863 10.7982 1.1579
v  -15.6773 10.7982 1.0480
v  15.5863 10.7982 1.0480
v  15.5863 10.6461 1.0480
v  15.5863 10.6461 1.1579
v  -15.6773 10.6461 1.0480
v  -15.6773 10.6461 1.1579
v  -15.6773 12.3480 1.1579
v  15.5863 12.3480 1.1579
v  -15.6773 12.3480 1.0480
v  15.5863 12.3480 1.0480
v  15.5863 12.1959 1.0480
v  15.5863 12.1959 1.1579
v  -15.6773 12.1959 1.0480
v  -15.6773 12.1959 1.1579
# 16 vertices

vn 0.0000 1.0000 -0.0000
vn 0.0000 -1.0000 -0.0000
vn 0.0000 0.0000 -1.0000
vn 1.0000 0.0000 -0.0000
vn 0.0000 0.0000 1.0000
vn -1.0000 0.0000 -0.0000
vn -0.5774 0.5774 0.5774
vn 0.5774 0.5773 0.5774
vn -0.5774 0.5773 -0.5774
vn 0.5774 0.5774 -0.5774
vn 0.5773 -0.5773 -0.5774
vn 0.5774 -0.5773 0.5774
vn -0.5774 -0.5773 -0.5774
vn -0.5773 -0.5773 0.5774
# 14 vertex normals

vt 0.0000 1.0000 0.0000
vt 1.0000 1.0000 0.0000
vt 0.0000 0.0000 0.0000
vt 1.0000 0.0000 0.0000
# 4 texture coords

g Mesh27
usemtl MatD3D27
s 1
f 26/26/2 27/27/2 28/28/2 
f 29/29/2 28/28/2 27/27/2 
f 30/28/3 31/26/3 32/29/3 
f 33/27/3 32/29/3 31/26/3 
f 29/29/4 30/27/4 28/28/4 
f 32/26/4 28/28/4 30/27/4 
f 27/29/5 31/27/5 29/28/5 
f 30/26/5 29/28/5 31/27/5 
f 26/29/6 33/27/6 27/28/6 
f 31/26/6 27/28/6 33/27/6 
f 28/29/7 32/27/7 26/28/7 
f 33/26/7 26/28/7 32/27/7 
usemtl MatD3D28
f 34/26/8 35/27/9 36/28/10 
f 37/29/11 36/28/10 35/27/9 
f 38/28/12 39/26/13 40/29/14 
f 41/27/15 40/29/14 39/26/13 
f 37/29/11 38/27/12 36/28/10 
f 40/26/14 36/28/10 38/27/12 
f 35/29/9 39/27/13 37/28/11 
f 38/26/12 37/28/11 39/27/13 
f 34/29/8 41/27/15 35/28/9 
f 39/26/13 35/28/9 41/27/15 
f 36/29/10 40/27/14 34/28/8 
f 41/26/15 34/28/8 40/27/14 
# 0 polygons - 24 triangles

#
# object Mesh30
#

v  15.3417 9.8162 0.9569
v  15.6454 9.8162 1.2544
v  15.3417 9.8162 1.2544
v  15.6454 9.8162 0.9569
v  15.3417 12.8497 0.9569
v  15.6454 12.8497 1.2544
v  15.6454 12.8497 0.9569
v  15.3417 12.8497 1.2544
v  -15.6777 9.8162 0.9569
v  -15.3739 9.8162 1.2544
v  -15.6777 9.8162 1.2544
v  -15.3739 9.8162 0.9569
v  -15.6777 12.8497 0.9569
v  -15.3739 12.8497 1.2544
v  -15.3739 12.8497 0.9569
v  -15.6777 12.8497 1.2544
# 16 vertices

vn 0.0000 -1.0000 -0.0000
vn 0.0000 1.0000 -0.0000
vn 0.0000 0.0000 -1.0000
vn 1.0000 0.0000 -0.0000
vn 0.0000 0.0000 1.0000
vn -1.0000 0.0000 -0.0000
vn -0.5774 -0.5774 -0.5774
vn 0.5774 -0.5774 0.5774
vn -0.5774 -0.5774 0.5774
vn 0.5774 -0.5774 -0.5774
vn -0.5774 0.5774 -0.5774
vn 0.5774 0.5774 0.5774
vn 0.5774 0.5774 -0.5774
vn -0.5774 0.5774 0.5774
# 14 vertex normals

vt 1.0000 0.0000 0.0000
vt 0.0000 1.0000 0.0000
vt 1.0000 1.0000 0.0000
vt 0.0000 0.0000 0.0000
# 4 texture coords

g Mesh30
usemtl MatD3D30
s 1
f 42/30/16 43/31/16 44/32/16 
f 43/31/16 42/30/16 45/33/16 
f 46/33/17 47/32/17 48/30/17 
f 47/32/17 46/33/17 49/31/17 
f 42/33/18 48/32/18 45/30/18 
f 48/32/18 42/33/18 46/31/18 
f 45/33/19 47/32/19 43/30/19 
f 47/32/19 45/33/19 48/31/19 
f 43/33/20 49/32/20 44/30/20 
f 49/32/20 43/33/20 47/31/20 
f 44/33/21 46/32/21 42/30/21 
f 46/32/21 44/33/21 49/31/21 
usemtl MatD3D29
f 50/30/22 51/31/23 52/32/24 
f 51/31/23 50/30/22 53/33/25 
f 54/33/26 55/32/27 56/30/28 
f 55/32/27 54/33/26 57/31/29 
f 50/33/22 56/32/28 53/30/25 
f 56/32/28 50/33/22 54/31/26 
f 53/33/25 55/32/27 51/30/23 
f 55/32/27 53/33/25 56/31/28 
f 51/33/23 57/32/29 52/30/24 
f 57/32/29 51/33/23 55/31/27 
f 52/33/24 54/32/26 50/30/22 
f 54/32/26 52/33/24 57/31/29 
# 0 polygons - 24 triangles

