# 3ds Max Wavefront OBJ Exporter v0.97b - (c)2007 guruware
# File Created: 21.01.2011 16:25:04

mtllib gardulet.mtl

#
# object Mesh26
#

v  -0.0130 11.4815 1.1022
v  -7.8415 11.4815 1.1022
v  -0.0130 11.8949 1.1022
v  -7.8415 10.6549 1.1022
v  -15.6700 10.6549 1.1022
v  -7.8415 11.0682 1.1022
v  -15.6700 11.0682 1.1022
v  15.6441 10.6549 1.1022
v  7.8155 10.6549 1.1022
v  15.6441 11.0682 1.1022
v  -15.6700 12.3082 1.1022
v  -7.8415 12.3082 1.1022
v  -15.6700 11.8949 1.1022
v  -0.0130 10.6549 1.1022
v  7.8155 11.0682 1.1022
v  -0.0130 11.0682 1.1022
v  -15.6700 11.4815 1.1022
v  7.8155 11.4815 1.1022
v  -7.8415 11.8949 1.1022
v  15.6441 11.4815 1.1022
v  15.6441 11.8949 1.1022
v  7.8155 11.8949 1.1022
v  -0.0130 12.3082 1.1022
v  15.6441 12.3082 1.1022
v  7.8155 12.3082 1.1022
# 25 vertices

vn 0.0000 0.0000 -1.0000
# 1 vertex normals

vt 0.5000 0.5000 0.0000
vt -3.1194 0.5000 0.0000
vt 0.5000 1.3330 0.0000
vt -3.1194 -1.1660 0.0000
vt -6.7387 -1.1660 0.0000
vt -3.1194 -0.3330 0.0000
vt -6.7387 -0.3330 0.0000
vt 7.7387 -1.1661 0.0000
vt 4.1194 -1.1661 0.0000
vt 7.7387 -0.3330 0.0000
vt -6.7387 2.1661 0.0000
vt -3.1194 2.1661 0.0000
vt -6.7387 1.3330 0.0000
vt 0.5000 -1.1661 0.0000
vt 4.1194 -0.3330 0.0000
vt 0.5000 -0.3330 0.0000
vt -6.7387 0.5000 0.0000
vt 4.1194 0.5000 0.0000
vt -3.1194 1.3330 0.0000
vt 7.7387 0.5000 0.0000
vt 7.7387 1.3330 0.0000
vt 4.1194 1.3330 0.0000
vt 0.5000 2.1661 0.0000
vt 7.7387 2.1660 0.0000
vt 4.1194 2.1660 0.0000
# 25 texture coords

g Mesh26
usemtl MatD3D26
s 1
f 1/1/1 2/2/1 3/3/1 
f 4/4/1 5/5/1 6/6/1 
f 7/7/1 2/2/1 6/6/1 
f 8/8/1 9/9/1 10/10/1 
f 11/11/1 12/12/1 13/13/1 
f 9/9/1 14/14/1 15/15/1 
f 5/5/1 7/7/1 6/6/1 
f 16/16/1 15/15/1 14/14/1 
f 14/14/1 4/4/1 16/16/1 
f 7/7/1 17/17/1 2/2/1 
f 1/1/1 6/6/1 2/2/1 
f 16/16/1 6/6/1 1/1/1 
f 16/16/1 4/4/1 6/6/1 
f 18/18/1 16/16/1 1/1/1 
f 18/18/1 15/15/1 16/16/1 
f 17/17/1 13/13/1 19/19/1 
f 19/19/1 2/2/1 17/17/1 
f 19/19/1 3/3/1 2/2/1 
f 20/20/1 18/18/1 21/21/1 
f 20/20/1 15/15/1 18/18/1 
f 22/22/1 1/1/1 3/3/1 
f 22/22/1 18/18/1 1/1/1 
f 10/10/1 15/15/1 20/20/1 
f 10/10/1 9/9/1 15/15/1 
f 23/23/1 3/3/1 19/19/1 
f 24/24/1 22/22/1 25/25/1 
f 25/25/1 3/3/1 23/23/1 
f 25/25/1 22/22/1 3/3/1 
f 12/12/1 19/19/1 13/13/1 
f 12/12/1 23/23/1 19/19/1 
f 21/21/1 22/22/1 24/24/1 
f 21/21/1 18/18/1 22/22/1 
# 32 faces

#
# object Mesh27
#

v  -15.6773 10.7982 1.1579
v  15.5863 10.7982 1.1579
v  -15.6773 10.7982 1.0480
v  15.5863 10.7982 1.0480
v  15.5863 10.6461 1.0480
v  15.5863 10.6461 1.1579
v  -15.6773 10.6461 1.0480
v  -15.6773 10.6461 1.1579
# 8 vertices

vn 0.0000 1.0000 -0.0000
vn 0.0000 -1.0000 -0.0000
vn 0.0000 0.0000 -1.0000
vn 1.0000 0.0000 -0.0000
vn 0.0000 0.0000 1.0000
vn -1.0000 0.0000 -0.0000
# 6 vertex normals

vt 0.0000 1.0000 0.0000
vt 1.0000 1.0000 0.0000
vt 0.0000 0.0000 0.0000
vt 1.0000 0.0000 0.0000
# 4 texture coords

g Mesh27
usemtl MatD3D27
s 1
f 26/26/2 27/27/2 28/28/2 
f 29/29/2 28/28/2 27/27/2 
f 30/28/3 31/26/3 32/29/3 
f 33/27/3 32/29/3 31/26/3 
f 29/29/4 30/27/4 28/28/4 
f 32/26/4 28/28/4 30/27/4 
f 27/29/5 31/27/5 29/28/5 
f 30/26/5 29/28/5 31/27/5 
f 26/29/6 33/27/6 27/28/6 
f 31/26/6 27/28/6 33/27/6 
f 28/29/7 32/27/7 26/28/7 
f 33/26/7 26/28/7 32/27/7 
# 12 faces

#
# object Mesh28
#

v  -15.6773 12.3480 1.1579
v  15.5863 12.3480 1.1579
v  -15.6773 12.3480 1.0480
v  15.5863 12.3480 1.0480
v  15.5863 12.1959 1.0480
v  15.5863 12.1959 1.1579
v  -15.6773 12.1959 1.0480
v  -15.6773 12.1959 1.1579
# 8 vertices

vn 0.0000 1.0000 -0.0000
vn 0.0000 -1.0000 -0.0000
vn 0.0000 0.0000 -1.0000
vn 1.0000 0.0000 -0.0000
vn 0.0000 0.0000 1.0000
vn -1.0000 0.0000 -0.0000
# 6 vertex normals

vt 0.0000 1.0000 0.0000
vt 1.0000 1.0000 0.0000
vt 0.0000 0.0000 0.0000
vt 1.0000 0.0000 0.0000
# 4 texture coords

g Mesh28
usemtl MatD3D28
s 1
f 34/30/8 35/31/8 36/32/8 
f 37/33/8 36/32/8 35/31/8 
f 38/32/9 39/30/9 40/33/9 
f 41/31/9 40/33/9 39/30/9 
f 37/33/10 38/31/10 36/32/10 
f 40/30/10 36/32/10 38/31/10 
f 35/33/11 39/31/11 37/32/11 
f 38/30/11 37/32/11 39/31/11 
f 34/33/12 41/31/12 35/32/12 
f 39/30/12 35/32/12 41/31/12 
f 36/33/13 40/31/13 34/32/13 
f 41/30/13 34/32/13 40/31/13 
# 12 faces

#
# object Mesh29
#

v  -15.6777 9.8162 0.9569
v  -15.3739 9.8162 1.2544
v  -15.6777 9.8162 1.2544
v  -15.3739 9.8162 0.9569
v  -15.6777 12.8497 0.9569
v  -15.3739 12.8497 1.2544
v  -15.3739 12.8497 0.9569
v  -15.6777 12.8497 1.2544
# 8 vertices

vn 0.0000 -1.0000 -0.0000
vn 0.0000 1.0000 -0.0000
vn 0.0000 0.0000 -1.0000
vn 1.0000 0.0000 -0.0000
vn 0.0000 0.0000 1.0000
vn -1.0000 0.0000 -0.0000
# 6 vertex normals

vt 1.0000 0.0000 0.0000
vt 0.0000 1.0000 0.0000
vt 1.0000 1.0000 0.0000
vt 0.0000 0.0000 0.0000
# 4 texture coords

g Mesh29
usemtl MatD3D29
s 1
f 42/34/14 43/35/14 44/36/14 
f 43/35/14 42/34/14 45/37/14 
f 46/37/15 47/36/15 48/34/15 
f 47/36/15 46/37/15 49/35/15 
f 42/37/16 48/36/16 45/34/16 
f 48/36/16 42/37/16 46/35/16 
f 45/37/17 47/36/17 43/34/17 
f 47/36/17 45/37/17 48/35/17 
f 43/37/18 49/36/18 44/34/18 
f 49/36/18 43/37/18 47/35/18 
f 44/37/19 46/36/19 42/34/19 
f 46/36/19 44/37/19 49/35/19 
# 12 faces

#
# object Mesh30
#

v  15.3417 9.8162 0.9569
v  15.6454 9.8162 1.2544
v  15.3417 9.8162 1.2544
v  15.6454 9.8162 0.9569
v  15.3417 12.8497 0.9569
v  15.6454 12.8497 1.2544
v  15.6454 12.8497 0.9569
v  15.3417 12.8497 1.2544
# 8 vertices

vn 0.0000 -1.0000 -0.0000
vn 0.0000 1.0000 -0.0000
vn 0.0000 0.0000 -1.0000
vn 1.0000 0.0000 -0.0000
vn 0.0000 0.0000 1.0000
vn -1.0000 0.0000 -0.0000
# 6 vertex normals

vt 1.0000 0.0000 0.0000
vt 0.0000 1.0000 0.0000
vt 1.0000 1.0000 0.0000
vt 0.0000 0.0000 0.0000
# 4 texture coords

g Mesh30
usemtl MatD3D30
s 1
f 50/38/20 51/39/20 52/40/20 
f 51/39/20 50/38/20 53/41/20 
f 54/41/21 55/40/21 56/38/21 
f 55/40/21 54/41/21 57/39/21 
f 50/41/22 56/40/22 53/38/22 
f 56/40/22 50/41/22 54/39/22 
f 53/41/23 55/40/23 51/38/23 
f 55/40/23 53/41/23 56/39/23 
f 51/41/24 57/40/24 52/38/24 
f 57/40/24 51/41/24 55/39/24 
f 52/41/25 54/40/25 50/38/25 
f 54/40/25 52/41/25 57/39/25 
# 12 faces

